# xmcd
#
# Track frame offsets: 
#        150
#        14947
#        29817
#        48890
#        62312
#        75092
#        91245
#        108755
#        126662
#        147872
#        164092
#
# Disc length: 2409 seconds
#
# Revision: 1
# Processed by: cddbd v1.5.2PL0 Copyright (c) Steve Scherf et al.
# Submitted via: ExactAudioCopyFreeDBPlugin 1.0
#
DISCID=9009670b
DTITLE=Alabama - American  Pride
DYEAR=1992
DGENRE=Country
TTITLE0=Take A Little Trip
TTITLE1=Hometown Honeymoon
TTITLE2=Once Upon A Lifetime
TTITLE3=You Can't The Country Out Of Me
TTITLE4=I'm In A Hurry (And Don't Know Why)
TTITLE5=Richard Petty Fans
TTITLE6=Homesick Fever
TTITLE7=Between The Two Of Them
TTITLE8=American Pride
TTITLE9=Sometimes Out Of Touch
TTITLE10=Pictures And Memories
EXTD=
EXTT0=
EXTT1=
EXTT2=
EXTT3=
EXTT4=
EXTT5=
EXTT6=
EXTT7=
EXTT8=
EXTT9=
EXTT10=
PLAYORDER=
